<?xml version="1.0" encoding="UTF-8" standalone="no"?>
<!DOCTYPE svg PUBLIC "-//W3C//DTD SVG 1.1//EN" "http://www.w3.org/Graphics/SVG/1.1/DTD/svg11.dtd">
<svg width="100%" height="100%" viewBox="0 0 256 256" version="1.1" xmlns="http://www.w3.org/2000/svg" xmlns:xlink="http://www.w3.org/1999/xlink" xml:space="preserve" xmlns:serif="http://www.serif.com/" style="fill-rule:evenodd;clip-rule:evenodd;stroke-linejoin:round;stroke-miterlimit:2;">
    <g>
        <path d="M170,111.968C179.659,111.968 187.5,119.809 187.5,129.468C187.5,139.126 179.659,146.968 170,146.968C160.341,146.968 152.5,139.126 152.5,129.468C152.5,119.809 160.341,111.968 170,111.968Z" style="fill:rgb(0,37,84);"/>
        <path d="M169.876,44.943C216.716,44.943 254.745,82.816 254.745,129.464C254.745,176.113 216.716,213.986 169.876,213.986C123.035,213.986 85.007,176.113 85.007,129.464C85.007,82.816 123.035,44.943 169.876,44.943ZM169.876,95.814C188.525,95.814 203.665,110.892 203.665,129.464C203.665,148.037 188.525,163.115 169.876,163.115C151.227,163.115 136.087,148.037 136.087,129.464C136.087,110.892 151.227,95.814 169.876,95.814Z" style="fill:rgb(0,37,84);"/>
        <path d="M88.432,192.691C81.412,195.342 73.831,196.789 65.926,196.789C29.681,196.789 0.254,166.374 0.254,128.912C0.254,91.449 29.681,61.035 65.926,61.035C73.722,61.035 81.203,62.442 88.142,65.023C84.457,69.92 81.185,75.144 78.379,80.646C74.404,79.551 70.23,78.968 65.926,78.968C39.257,78.968 17.605,101.347 17.605,128.912C17.605,156.476 39.257,178.855 65.926,178.855C70.31,178.855 74.559,178.25 78.6,177.116C81.43,182.603 84.726,187.813 88.432,192.691ZM131.396,123.566C131.53,125.332 131.598,127.114 131.598,128.912C131.598,130.605 131.538,132.284 131.419,133.948C131.202,132.217 131.09,130.454 131.09,128.665C131.09,126.94 131.194,125.239 131.396,123.566Z" style="fill:rgb(0,37,84);"/>
        <path d="M72.586,163.035C71.32,163.171 70.034,163.241 68.732,163.241C49.415,163.241 33.731,147.835 33.731,128.858C33.731,109.881 49.415,94.474 68.732,94.474C69.992,94.474 71.236,94.54 72.459,94.667C70.599,100.149 69.176,105.831 68.232,111.673C58.804,111.933 51.232,119.533 51.232,128.858C51.232,138.203 58.838,145.817 68.295,146.044C69.26,151.88 70.704,157.555 72.586,163.035Z" style="fill:rgb(0,37,84);"/>
    </g>
</svg>
